<?xml version="1.0" encoding="utf-8"?>
<svg viewBox="0 -0.019 44.205 44.019" width="44.205" height="44.019" fill="none" xmlns="http://www.w3.org/2000/svg">
  <rect x="0.106" y="-0.005" width="44.016" height="44.016" style="paint-order: fill; fill: rgb(0, 0, 0);"/>
  <path d="M 16.253 31.797 L 16.253 11.393 L 22.968 11.393 C 24.536 11.393 25.788 11.669 26.773 12.266 C 27.758 12.863 28.52 13.598 28.966 14.609 C 29.46 15.576 29.682 16.678 29.682 17.873 C 29.682 19.068 29.46 20.171 28.966 21.135 C 28.475 22.1 27.758 22.881 26.773 23.48 C 25.788 24.076 24.536 24.352 22.968 24.352 L 18.179 24.352 L 18.179 22.147 L 22.922 22.147 C 23.997 22.147 24.848 21.962 25.474 21.594 C 26.101 21.227 26.594 20.721 26.908 20.079 C 27.221 19.434 27.356 18.7 27.356 17.873 C 27.356 17.045 27.221 16.31 26.908 15.666 C 26.594 15.023 26.146 14.517 25.474 14.15 C 24.804 13.782 23.953 13.598 22.878 13.598 L 18.67 13.598 L 18.67 31.797 L 16.253 31.797 Z" style="" fill="#EAEAEA"/>
  <path d="M 22.723 38.045 C 22.248 38.121 22.866 37.873 23.174 37.815 C 36.023 34.886 38.968 37.854 38.874 37.7 C 36.261 33.123 38.328 25.253 39.134 21.729 C 39.253 21.308 39.324 21.231 39.324 21.327 C 38.255 29.906 37.9 32.569 39.324 38.085 C 39.467 38.715 35.786 35.9 22.723 38.045 Z" stroke-linecap="round" stroke-linejoin="round" style="" fill="#EAEAEA" stroke="#EAEAEA"/>
  <path d="M 5.701 4.531 C 11.453 5.89 14.25 5.55 23.178 4.531 C 23.298 4.508 23.198 4.599 22.758 4.712 C 19.083 5.482 10.874 7.454 6.101 4.961 C 5.941 4.893 9.057 7.703 5.981 19.939 C 5.921 20.234 5.661 20.823 5.741 20.37 C 8.018 7.884 5.082 4.395 5.701 4.531 Z" stroke-linecap="round" stroke-linejoin="round" style="" stroke="#EAEAEA" fill="#EAEAEA"/>
</svg>